<?xml version="1.0" standalone="no"?><svg xmlns="http://www.w3.org/2000/svg" viewBox="0 0 1440 320"><path fill="#9810fa" fill-opacity="1" d="M0,256L30,261.3C60,267,120,277,180,261.3C240,245,300,203,360,176C420,149,480,139,540,138.7C600,139,660,149,720,160C780,171,840,181,900,170.7C960,160,1020,128,1080,144C1140,160,1200,224,1260,256C1320,288,1380,288,1410,288L1440,288L1440,0L1410,0C1380,0,1320,0,1260,0C1200,0,1140,0,1080,0C1020,0,960,0,900,0C840,0,780,0,720,0C660,0,600,0,540,0C480,0,420,0,360,0C300,0,240,0,180,0C120,0,60,0,30,0L0,0Z"></path></svg>